<mxfile host="app.diagrams.net" agent="Mozilla/5.0 (Windows NT 10.0; Win64; x64) AppleWebKit/537.36 (KHTML, like Gecko) Chrome/133.0.0.0 Safari/537.36" version="26.0.16">
  <diagram name="Página-1" id="MiUuDI48baqAd7auRptR">
    <mxGraphModel dx="578" dy="876" grid="1" gridSize="10" guides="1" tooltips="1" connect="1" arrows="1" fold="1" page="1" pageScale="1" pageWidth="827" pageHeight="1169" math="0" shadow="0">
      <root>
        <mxCell id="0" />
        <mxCell id="1" parent="0" />
        <mxCell id="bFPvbuVX6eMESYYFqPks-5" value="" style="edgeStyle=orthogonalEdgeStyle;rounded=0;orthogonalLoop=1;jettySize=auto;html=1;" edge="1" parent="1" source="bFPvbuVX6eMESYYFqPks-1" target="bFPvbuVX6eMESYYFqPks-4">
          <mxGeometry relative="1" as="geometry" />
        </mxCell>
        <mxCell id="bFPvbuVX6eMESYYFqPks-1" value="&lt;h1 style=&quot;font-size: 20px;&quot;&gt;Inicio&lt;/h1&gt;" style="ellipse;whiteSpace=wrap;html=1;fontSize=20;fontStyle=1;fillColor=#d5e8d4;strokeColor=#82b366;" vertex="1" parent="1">
          <mxGeometry x="40" y="40" width="120" height="80" as="geometry" />
        </mxCell>
        <mxCell id="bFPvbuVX6eMESYYFqPks-15" style="edgeStyle=orthogonalEdgeStyle;rounded=0;orthogonalLoop=1;jettySize=auto;html=1;" edge="1" parent="1" source="bFPvbuVX6eMESYYFqPks-4" target="bFPvbuVX6eMESYYFqPks-6">
          <mxGeometry relative="1" as="geometry" />
        </mxCell>
        <mxCell id="bFPvbuVX6eMESYYFqPks-4" value="Cadastrar Marca&lt;div&gt;(abrir modal)&lt;/div&gt;" style="rounded=0;whiteSpace=wrap;html=1;fontStyle=1;fillColor=#dae8fc;strokeColor=#6c8ebf;" vertex="1" parent="1">
          <mxGeometry x="200" y="50" width="120" height="60" as="geometry" />
        </mxCell>
        <mxCell id="bFPvbuVX6eMESYYFqPks-36" value="" style="edgeStyle=orthogonalEdgeStyle;rounded=0;orthogonalLoop=1;jettySize=auto;html=1;" edge="1" parent="1" source="bFPvbuVX6eMESYYFqPks-6" target="bFPvbuVX6eMESYYFqPks-35">
          <mxGeometry relative="1" as="geometry" />
        </mxCell>
        <mxCell id="bFPvbuVX6eMESYYFqPks-6" value="Modal de cadastro de marca" style="swimlane;fontStyle=1;childLayout=stackLayout;horizontal=1;startSize=30;horizontalStack=0;resizeParent=1;resizeParentMax=0;resizeLast=0;collapsible=1;marginBottom=0;whiteSpace=wrap;html=1;fillColor=#dae8fc;strokeColor=#6c8ebf;" vertex="1" parent="1">
          <mxGeometry x="360" y="45" width="160" height="70" as="geometry" />
        </mxCell>
        <mxCell id="bFPvbuVX6eMESYYFqPks-7" value="Descrição da Marca * (obrigatório)" style="text;strokeColor=none;fillColor=none;align=left;verticalAlign=middle;spacingLeft=4;spacingRight=4;overflow=hidden;points=[[0,0.5],[1,0.5]];portConstraint=eastwest;rotatable=0;whiteSpace=wrap;html=1;fontStyle=1" vertex="1" parent="bFPvbuVX6eMESYYFqPks-6">
          <mxGeometry y="30" width="160" height="40" as="geometry" />
        </mxCell>
        <mxCell id="bFPvbuVX6eMESYYFqPks-20" value="" style="edgeStyle=orthogonalEdgeStyle;rounded=0;orthogonalLoop=1;jettySize=auto;html=1;" edge="1" parent="1" source="bFPvbuVX6eMESYYFqPks-17" target="bFPvbuVX6eMESYYFqPks-19">
          <mxGeometry relative="1" as="geometry" />
        </mxCell>
        <mxCell id="bFPvbuVX6eMESYYFqPks-17" value="Validação para verificar se o campo esta vazio" style="whiteSpace=wrap;html=1;fillColor=#dae8fc;strokeColor=#6c8ebf;fontStyle=1;startSize=30;" vertex="1" parent="1">
          <mxGeometry x="380" y="260" width="120" height="60" as="geometry" />
        </mxCell>
        <mxCell id="bFPvbuVX6eMESYYFqPks-22" value="" style="edgeStyle=orthogonalEdgeStyle;rounded=0;orthogonalLoop=1;jettySize=auto;html=1;" edge="1" parent="1" source="bFPvbuVX6eMESYYFqPks-19" target="bFPvbuVX6eMESYYFqPks-21">
          <mxGeometry relative="1" as="geometry" />
        </mxCell>
        <mxCell id="bFPvbuVX6eMESYYFqPks-81" style="edgeStyle=orthogonalEdgeStyle;rounded=0;orthogonalLoop=1;jettySize=auto;html=1;entryX=1;entryY=0.5;entryDx=0;entryDy=0;" edge="1" parent="1" source="bFPvbuVX6eMESYYFqPks-19" target="bFPvbuVX6eMESYYFqPks-27">
          <mxGeometry relative="1" as="geometry" />
        </mxCell>
        <mxCell id="bFPvbuVX6eMESYYFqPks-19" value="Verificação" style="rhombus;whiteSpace=wrap;html=1;fillColor=#fff2cc;strokeColor=#d6b656;fontStyle=1;startSize=30;" vertex="1" parent="1">
          <mxGeometry x="400" y="350" width="80" height="80" as="geometry" />
        </mxCell>
        <mxCell id="bFPvbuVX6eMESYYFqPks-21" value="Alerta informando para preencher o campo obrigatório" style="whiteSpace=wrap;html=1;fillColor=#f8cecc;strokeColor=#b85450;fontStyle=1;startSize=30;" vertex="1" parent="1">
          <mxGeometry x="520" y="360" width="120" height="60" as="geometry" />
        </mxCell>
        <mxCell id="bFPvbuVX6eMESYYFqPks-23" value="Não" style="rounded=0;whiteSpace=wrap;html=1;fillColor=#f8cecc;strokeColor=#b85450;fontStyle=1" vertex="1" parent="1">
          <mxGeometry x="480" y="360" width="30" height="20" as="geometry" />
        </mxCell>
        <mxCell id="bFPvbuVX6eMESYYFqPks-83" style="edgeStyle=orthogonalEdgeStyle;rounded=0;orthogonalLoop=1;jettySize=auto;html=1;" edge="1" parent="1" source="bFPvbuVX6eMESYYFqPks-24" target="bFPvbuVX6eMESYYFqPks-31">
          <mxGeometry relative="1" as="geometry" />
        </mxCell>
        <mxCell id="bFPvbuVX6eMESYYFqPks-24" value="Alerta de marca cadastrada" style="whiteSpace=wrap;html=1;fillColor=#d5e8d4;strokeColor=#82b366;fontStyle=1;startSize=30;" vertex="1" parent="1">
          <mxGeometry x="80" y="360" width="120" height="60" as="geometry" />
        </mxCell>
        <mxCell id="bFPvbuVX6eMESYYFqPks-26" value="Sim" style="rounded=0;whiteSpace=wrap;html=1;fillColor=#d5e8d4;strokeColor=#82b366;fontStyle=1" vertex="1" parent="1">
          <mxGeometry x="370" y="360" width="30" height="20" as="geometry" />
        </mxCell>
        <mxCell id="bFPvbuVX6eMESYYFqPks-82" style="edgeStyle=orthogonalEdgeStyle;rounded=0;orthogonalLoop=1;jettySize=auto;html=1;" edge="1" parent="1" source="bFPvbuVX6eMESYYFqPks-27" target="bFPvbuVX6eMESYYFqPks-24">
          <mxGeometry relative="1" as="geometry" />
        </mxCell>
        <mxCell id="bFPvbuVX6eMESYYFqPks-27" value="Insert da informação no banco de dados" style="whiteSpace=wrap;html=1;fillColor=#d5e8d4;strokeColor=#82b366;fontStyle=1;startSize=30;" vertex="1" parent="1">
          <mxGeometry x="240" y="360" width="120" height="60" as="geometry" />
        </mxCell>
        <mxCell id="bFPvbuVX6eMESYYFqPks-50" style="edgeStyle=orthogonalEdgeStyle;rounded=0;orthogonalLoop=1;jettySize=auto;html=1;entryX=0.5;entryY=0;entryDx=0;entryDy=0;" edge="1" parent="1" source="bFPvbuVX6eMESYYFqPks-31" target="bFPvbuVX6eMESYYFqPks-42">
          <mxGeometry relative="1" as="geometry" />
        </mxCell>
        <mxCell id="bFPvbuVX6eMESYYFqPks-62" style="edgeStyle=orthogonalEdgeStyle;rounded=0;orthogonalLoop=1;jettySize=auto;html=1;" edge="1" parent="1" source="bFPvbuVX6eMESYYFqPks-31" target="bFPvbuVX6eMESYYFqPks-52">
          <mxGeometry relative="1" as="geometry" />
        </mxCell>
        <mxCell id="bFPvbuVX6eMESYYFqPks-31" value="Tela de listagem de marcas cadastradas" style="whiteSpace=wrap;html=1;fillColor=#dae8fc;strokeColor=#6c8ebf;fontStyle=1;startSize=30;" vertex="1" parent="1">
          <mxGeometry x="80" y="460" width="120" height="60" as="geometry" />
        </mxCell>
        <mxCell id="bFPvbuVX6eMESYYFqPks-38" value="" style="edgeStyle=orthogonalEdgeStyle;rounded=0;orthogonalLoop=1;jettySize=auto;html=1;" edge="1" parent="1" source="bFPvbuVX6eMESYYFqPks-35" target="bFPvbuVX6eMESYYFqPks-37">
          <mxGeometry relative="1" as="geometry" />
        </mxCell>
        <mxCell id="bFPvbuVX6eMESYYFqPks-40" value="" style="edgeStyle=orthogonalEdgeStyle;rounded=0;orthogonalLoop=1;jettySize=auto;html=1;" edge="1" parent="1" source="bFPvbuVX6eMESYYFqPks-35" target="bFPvbuVX6eMESYYFqPks-39">
          <mxGeometry relative="1" as="geometry" />
        </mxCell>
        <mxCell id="bFPvbuVX6eMESYYFqPks-35" value="Botões" style="rhombus;whiteSpace=wrap;html=1;fillColor=#fff2cc;strokeColor=#d6b656;fontStyle=1;startSize=30;" vertex="1" parent="1">
          <mxGeometry x="400" y="160" width="80" height="80" as="geometry" />
        </mxCell>
        <mxCell id="bFPvbuVX6eMESYYFqPks-41" style="edgeStyle=orthogonalEdgeStyle;rounded=0;orthogonalLoop=1;jettySize=auto;html=1;entryX=0;entryY=0.5;entryDx=0;entryDy=0;" edge="1" parent="1" source="bFPvbuVX6eMESYYFqPks-37" target="bFPvbuVX6eMESYYFqPks-17">
          <mxGeometry relative="1" as="geometry">
            <Array as="points">
              <mxPoint x="300" y="290" />
            </Array>
          </mxGeometry>
        </mxCell>
        <mxCell id="bFPvbuVX6eMESYYFqPks-37" value="Botão para salvar as informações" style="whiteSpace=wrap;html=1;fillColor=#d5e8d4;strokeColor=#82b366;fontStyle=1;startSize=30;" vertex="1" parent="1">
          <mxGeometry x="240" y="170" width="120" height="60" as="geometry" />
        </mxCell>
        <mxCell id="bFPvbuVX6eMESYYFqPks-39" value="Botão pra limpar o modal" style="whiteSpace=wrap;html=1;fillColor=#f5f5f5;strokeColor=#666666;fontStyle=1;startSize=30;fontColor=#333333;" vertex="1" parent="1">
          <mxGeometry x="520" y="170" width="120" height="60" as="geometry" />
        </mxCell>
        <mxCell id="bFPvbuVX6eMESYYFqPks-51" style="edgeStyle=orthogonalEdgeStyle;rounded=0;orthogonalLoop=1;jettySize=auto;html=1;entryX=0.5;entryY=0;entryDx=0;entryDy=0;" edge="1" parent="1" source="bFPvbuVX6eMESYYFqPks-42" target="bFPvbuVX6eMESYYFqPks-43">
          <mxGeometry relative="1" as="geometry" />
        </mxCell>
        <mxCell id="bFPvbuVX6eMESYYFqPks-42" value="Usando a biblioteca dataTables para adicionar a tabela opções de:" style="whiteSpace=wrap;html=1;fontStyle=1;fillColor=#dae8fc;strokeColor=#6c8ebf;" vertex="1" parent="1">
          <mxGeometry x="80" y="560" width="120" height="60" as="geometry" />
        </mxCell>
        <mxCell id="bFPvbuVX6eMESYYFqPks-43" value="Opções" style="swimlane;fontStyle=1;childLayout=stackLayout;horizontal=1;startSize=30;horizontalStack=0;resizeParent=1;resizeParentMax=0;resizeLast=0;collapsible=1;marginBottom=0;whiteSpace=wrap;html=1;fillColor=#dae8fc;strokeColor=#6c8ebf;" vertex="1" parent="1">
          <mxGeometry x="70" y="660" width="140" height="210" as="geometry" />
        </mxCell>
        <mxCell id="bFPvbuVX6eMESYYFqPks-44" value="Barra de Pesquisa" style="text;strokeColor=none;fillColor=none;align=left;verticalAlign=middle;spacingLeft=4;spacingRight=4;overflow=hidden;points=[[0,0.5],[1,0.5]];portConstraint=eastwest;rotatable=0;whiteSpace=wrap;html=1;fontStyle=1" vertex="1" parent="bFPvbuVX6eMESYYFqPks-43">
          <mxGeometry y="30" width="140" height="30" as="geometry" />
        </mxCell>
        <mxCell id="bFPvbuVX6eMESYYFqPks-45" value="Copiar para a área de transferência" style="text;strokeColor=none;fillColor=none;align=left;verticalAlign=middle;spacingLeft=4;spacingRight=4;overflow=hidden;points=[[0,0.5],[1,0.5]];portConstraint=eastwest;rotatable=0;whiteSpace=wrap;html=1;fontStyle=1" vertex="1" parent="bFPvbuVX6eMESYYFqPks-43">
          <mxGeometry y="60" width="140" height="30" as="geometry" />
        </mxCell>
        <mxCell id="bFPvbuVX6eMESYYFqPks-46" value="CSV" style="text;strokeColor=none;fillColor=none;align=left;verticalAlign=middle;spacingLeft=4;spacingRight=4;overflow=hidden;points=[[0,0.5],[1,0.5]];portConstraint=eastwest;rotatable=0;whiteSpace=wrap;html=1;fontStyle=1" vertex="1" parent="bFPvbuVX6eMESYYFqPks-43">
          <mxGeometry y="90" width="140" height="30" as="geometry" />
        </mxCell>
        <mxCell id="bFPvbuVX6eMESYYFqPks-47" value="Exel" style="text;strokeColor=none;fillColor=none;align=left;verticalAlign=middle;spacingLeft=4;spacingRight=4;overflow=hidden;points=[[0,0.5],[1,0.5]];portConstraint=eastwest;rotatable=0;whiteSpace=wrap;html=1;fontStyle=1" vertex="1" parent="bFPvbuVX6eMESYYFqPks-43">
          <mxGeometry y="120" width="140" height="30" as="geometry" />
        </mxCell>
        <mxCell id="bFPvbuVX6eMESYYFqPks-48" value="PDF" style="text;strokeColor=none;fillColor=none;align=left;verticalAlign=middle;spacingLeft=4;spacingRight=4;overflow=hidden;points=[[0,0.5],[1,0.5]];portConstraint=eastwest;rotatable=0;whiteSpace=wrap;html=1;fontStyle=1" vertex="1" parent="bFPvbuVX6eMESYYFqPks-43">
          <mxGeometry y="150" width="140" height="30" as="geometry" />
        </mxCell>
        <mxCell id="bFPvbuVX6eMESYYFqPks-49" value="Imprimir" style="text;strokeColor=none;fillColor=none;align=left;verticalAlign=middle;spacingLeft=4;spacingRight=4;overflow=hidden;points=[[0,0.5],[1,0.5]];portConstraint=eastwest;rotatable=0;whiteSpace=wrap;html=1;fontStyle=1" vertex="1" parent="bFPvbuVX6eMESYYFqPks-43">
          <mxGeometry y="180" width="140" height="30" as="geometry" />
        </mxCell>
        <mxCell id="bFPvbuVX6eMESYYFqPks-75" style="edgeStyle=orthogonalEdgeStyle;rounded=0;orthogonalLoop=1;jettySize=auto;html=1;" edge="1" parent="1" source="bFPvbuVX6eMESYYFqPks-52" target="bFPvbuVX6eMESYYFqPks-63">
          <mxGeometry relative="1" as="geometry" />
        </mxCell>
        <mxCell id="bFPvbuVX6eMESYYFqPks-52" value="Tabela de listagem de marcas" style="swimlane;fontStyle=1;childLayout=stackLayout;horizontal=1;startSize=30;horizontalStack=0;resizeParent=1;resizeParentMax=0;resizeLast=0;collapsible=1;marginBottom=0;whiteSpace=wrap;html=1;fillColor=#dae8fc;strokeColor=#6c8ebf;" vertex="1" parent="1">
          <mxGeometry x="240" y="460" width="140" height="150" as="geometry" />
        </mxCell>
        <mxCell id="bFPvbuVX6eMESYYFqPks-54" value="Id" style="text;strokeColor=none;fillColor=none;align=left;verticalAlign=middle;spacingLeft=4;spacingRight=4;overflow=hidden;points=[[0,0.5],[1,0.5]];portConstraint=eastwest;rotatable=0;whiteSpace=wrap;html=1;fontStyle=1" vertex="1" parent="bFPvbuVX6eMESYYFqPks-52">
          <mxGeometry y="30" width="140" height="30" as="geometry" />
        </mxCell>
        <mxCell id="bFPvbuVX6eMESYYFqPks-53" value="Descrição" style="text;strokeColor=none;fillColor=none;align=left;verticalAlign=middle;spacingLeft=4;spacingRight=4;overflow=hidden;points=[[0,0.5],[1,0.5]];portConstraint=eastwest;rotatable=0;whiteSpace=wrap;html=1;fontStyle=1" vertex="1" parent="bFPvbuVX6eMESYYFqPks-52">
          <mxGeometry y="60" width="140" height="30" as="geometry" />
        </mxCell>
        <mxCell id="bFPvbuVX6eMESYYFqPks-55" value="Tipo" style="text;strokeColor=none;fillColor=none;align=left;verticalAlign=middle;spacingLeft=4;spacingRight=4;overflow=hidden;points=[[0,0.5],[1,0.5]];portConstraint=eastwest;rotatable=0;whiteSpace=wrap;html=1;fontStyle=1" vertex="1" parent="bFPvbuVX6eMESYYFqPks-52">
          <mxGeometry y="90" width="140" height="30" as="geometry" />
        </mxCell>
        <mxCell id="bFPvbuVX6eMESYYFqPks-56" value="Status" style="text;strokeColor=none;fillColor=none;align=left;verticalAlign=middle;spacingLeft=4;spacingRight=4;overflow=hidden;points=[[0,0.5],[1,0.5]];portConstraint=eastwest;rotatable=0;whiteSpace=wrap;html=1;fontStyle=1" vertex="1" parent="bFPvbuVX6eMESYYFqPks-52">
          <mxGeometry y="120" width="140" height="30" as="geometry" />
        </mxCell>
        <mxCell id="bFPvbuVX6eMESYYFqPks-63" value="Ações" style="swimlane;fontStyle=1;childLayout=stackLayout;horizontal=1;startSize=30;horizontalStack=0;resizeParent=1;resizeParentMax=0;resizeLast=0;collapsible=1;marginBottom=0;whiteSpace=wrap;html=1;fillColor=#dae8fc;strokeColor=#6c8ebf;" vertex="1" parent="1">
          <mxGeometry x="424.5" y="460" width="140" height="150" as="geometry" />
        </mxCell>
        <mxCell id="bFPvbuVX6eMESYYFqPks-64" value="Ativar" style="text;strokeColor=none;fillColor=none;align=left;verticalAlign=middle;spacingLeft=4;spacingRight=4;overflow=hidden;points=[[0,0.5],[1,0.5]];portConstraint=eastwest;rotatable=0;whiteSpace=wrap;html=1;fontStyle=1" vertex="1" parent="bFPvbuVX6eMESYYFqPks-63">
          <mxGeometry y="30" width="140" height="30" as="geometry" />
        </mxCell>
        <mxCell id="bFPvbuVX6eMESYYFqPks-65" value="Inativar" style="text;strokeColor=none;fillColor=none;align=left;verticalAlign=middle;spacingLeft=4;spacingRight=4;overflow=hidden;points=[[0,0.5],[1,0.5]];portConstraint=eastwest;rotatable=0;whiteSpace=wrap;html=1;fontStyle=1" vertex="1" parent="bFPvbuVX6eMESYYFqPks-63">
          <mxGeometry y="60" width="140" height="30" as="geometry" />
        </mxCell>
        <mxCell id="bFPvbuVX6eMESYYFqPks-66" value="Remover" style="text;strokeColor=none;fillColor=none;align=left;verticalAlign=middle;spacingLeft=4;spacingRight=4;overflow=hidden;points=[[0,0.5],[1,0.5]];portConstraint=eastwest;rotatable=0;whiteSpace=wrap;html=1;fontStyle=1" vertex="1" parent="bFPvbuVX6eMESYYFqPks-63">
          <mxGeometry y="90" width="140" height="30" as="geometry" />
        </mxCell>
        <mxCell id="bFPvbuVX6eMESYYFqPks-67" value="Alterar" style="text;strokeColor=none;fillColor=none;align=left;verticalAlign=middle;spacingLeft=4;spacingRight=4;overflow=hidden;points=[[0,0.5],[1,0.5]];portConstraint=eastwest;rotatable=0;whiteSpace=wrap;html=1;fontStyle=1" vertex="1" parent="bFPvbuVX6eMESYYFqPks-63">
          <mxGeometry y="120" width="140" height="30" as="geometry" />
        </mxCell>
        <mxCell id="bFPvbuVX6eMESYYFqPks-68" value="Usando Update na coluna Status no Banco de dados" style="whiteSpace=wrap;html=1;fontStyle=1;fillColor=#dae8fc;strokeColor=#6c8ebf;" vertex="1" parent="1">
          <mxGeometry x="610.5" y="490" width="120" height="60" as="geometry" />
        </mxCell>
        <mxCell id="bFPvbuVX6eMESYYFqPks-69" value="Usando Delete na no Banco de dados" style="whiteSpace=wrap;html=1;fontStyle=1;fillColor=#dae8fc;strokeColor=#6c8ebf;" vertex="1" parent="1">
          <mxGeometry x="610.5" y="565" width="120" height="60" as="geometry" />
        </mxCell>
        <mxCell id="bFPvbuVX6eMESYYFqPks-70" style="edgeStyle=orthogonalEdgeStyle;rounded=0;orthogonalLoop=1;jettySize=auto;html=1;entryX=0;entryY=0.5;entryDx=0;entryDy=0;" edge="1" parent="1" source="bFPvbuVX6eMESYYFqPks-66" target="bFPvbuVX6eMESYYFqPks-69">
          <mxGeometry relative="1" as="geometry" />
        </mxCell>
        <mxCell id="bFPvbuVX6eMESYYFqPks-71" value="Usando primeiramente o Select para buscar as informações e depois usar Update para fazer a alteração" style="whiteSpace=wrap;html=1;fontStyle=1;fillColor=#dae8fc;strokeColor=#6c8ebf;" vertex="1" parent="1">
          <mxGeometry x="605.5" y="635" width="130" height="90" as="geometry" />
        </mxCell>
        <mxCell id="bFPvbuVX6eMESYYFqPks-72" style="edgeStyle=orthogonalEdgeStyle;rounded=0;orthogonalLoop=1;jettySize=auto;html=1;entryX=0;entryY=0.25;entryDx=0;entryDy=0;" edge="1" parent="1" source="bFPvbuVX6eMESYYFqPks-64" target="bFPvbuVX6eMESYYFqPks-68">
          <mxGeometry relative="1" as="geometry" />
        </mxCell>
        <mxCell id="bFPvbuVX6eMESYYFqPks-73" style="edgeStyle=orthogonalEdgeStyle;rounded=0;orthogonalLoop=1;jettySize=auto;html=1;entryX=0;entryY=0.75;entryDx=0;entryDy=0;" edge="1" parent="1" source="bFPvbuVX6eMESYYFqPks-65" target="bFPvbuVX6eMESYYFqPks-68">
          <mxGeometry relative="1" as="geometry" />
        </mxCell>
        <mxCell id="bFPvbuVX6eMESYYFqPks-74" style="edgeStyle=orthogonalEdgeStyle;rounded=0;orthogonalLoop=1;jettySize=auto;html=1;entryX=0;entryY=0.5;entryDx=0;entryDy=0;" edge="1" parent="1" source="bFPvbuVX6eMESYYFqPks-67">
          <mxGeometry relative="1" as="geometry">
            <mxPoint x="610.5" y="680" as="targetPoint" />
            <Array as="points">
              <mxPoint x="574.5" y="595" />
              <mxPoint x="574.5" y="680" />
            </Array>
          </mxGeometry>
        </mxCell>
      </root>
    </mxGraphModel>
  </diagram>
</mxfile>
